<svg width="100%" viewBox="0 0 680 900" xmlns="http://www.w3.org/2000/svg" font-family="ui-sans-serif,system-ui,sans-serif">
  <defs>
    <marker id="a" viewBox="0 0 10 10" refX="8" refY="5" markerWidth="6" markerHeight="6" orient="auto-start-reverse">
      <path d="M2 1L8 5L2 9" fill="none" stroke="#888" stroke-width="1.5" stroke-linecap="round" stroke-linejoin="round"/>
    </marker>
    <marker id="ad" viewBox="0 0 10 10" refX="8" refY="5" markerWidth="6" markerHeight="6" orient="auto-start-reverse">
      <path d="M2 1L8 5L2 9" fill="none" stroke="#bbb" stroke-width="1.5" stroke-linecap="round" stroke-linejoin="round"/>
    </marker>
  </defs>

  <rect x="170" y="20" width="340" height="70" rx="8" fill="#E6F1FB" stroke="#378ADD" stroke-width="0.8"/>
  <text x="340" y="44" font-size="13" font-weight="500" fill="#0C447C" text-anchor="middle">Data Ingestion</text>
  <text x="340" y="62" font-size="11" fill="#185FA5" text-anchor="middle">Airflow DAG · schedule: 0 10 * * 1-5</text>
  <text x="340" y="78" font-size="11" fill="#185FA5" text-anchor="middle">yfinance &#8594; Parquet cache · retry: 2x</text>

  <line x1="340" y1="90" x2="340" y2="118" stroke="#888" stroke-width="1.2" marker-end="url(#a)"/>

  <polygon points="340,118 420,162 340,206 260,162" fill="#E6F1FB" stroke="#378ADD" stroke-width="0.8"/>
  <text x="340" y="154" font-size="11" font-weight="500" fill="#0C447C" text-anchor="middle">Data quality</text>
  <text x="340" y="170" font-size="11" fill="#185FA5" text-anchor="middle">8-check gate</text>

  <line x1="260" y1="162" x2="160" y2="162" stroke="#bbb" stroke-width="1" stroke-dasharray="4 3" marker-end="url(#ad)"/>
  <rect x="62" y="140" width="96" height="44" rx="6" fill="#FCEBEB" stroke="#E24B4A" stroke-width="0.6"/>
  <text x="110" y="158" font-size="11" fill="#A32D2D" text-anchor="middle">pipeline halt</text>
  <text x="110" y="174" font-size="10" fill="#E24B4A" text-anchor="middle">bad data blocked</text>
  <text x="210" y="150" font-size="10" fill="#bbb" text-anchor="middle">fail</text>

  <line x1="340" y1="206" x2="340" y2="234" stroke="#888" stroke-width="1.2" marker-end="url(#a)"/>
  <text x="352" y="224" font-size="10" fill="#888">pass</text>

  <rect x="170" y="236" width="340" height="70" rx="8" fill="#E1F5EE" stroke="#1D9E75" stroke-width="0.8"/>
  <text x="340" y="260" font-size="13" font-weight="500" fill="#085041" text-anchor="middle">Feature Engineering</text>
  <text x="340" y="278" font-size="11" fill="#0F6E56" text-anchor="middle">MACD · RSI(14) · Bollinger Bands · ATR</text>
  <text x="340" y="294" font-size="11" fill="#0F6E56" text-anchor="middle">versioned Parquet · data/features/TICKER/DATE</text>

  <line x1="340" y1="306" x2="340" y2="334" stroke="#888" stroke-width="1.2" marker-end="url(#a)"/>

  <polygon points="340,334 420,378 340,422 260,378" fill="#E1F5EE" stroke="#1D9E75" stroke-width="0.8"/>
  <text x="340" y="370" font-size="11" font-weight="500" fill="#085041" text-anchor="middle">PSI drift</text>
  <text x="340" y="386" font-size="11" fill="#0F6E56" text-anchor="middle">weekly check</text>

  <line x1="260" y1="378" x2="160" y2="378" stroke="#bbb" stroke-width="1" stroke-dasharray="4 3" marker-end="url(#ad)"/>
  <rect x="62" y="356" width="96" height="44" rx="6" fill="#FAEEDA" stroke="#BA7517" stroke-width="0.6"/>
  <text x="110" y="374" font-size="11" fill="#412402" text-anchor="middle">trigger retrain</text>
  <text x="110" y="390" font-size="10" fill="#BA7517" text-anchor="middle">PSI &#8805; 0.1</text>
  <text x="210" y="366" font-size="10" fill="#bbb" text-anchor="middle">drift</text>

  <line x1="340" y1="422" x2="340" y2="450" stroke="#888" stroke-width="1.2" marker-end="url(#a)"/>
  <text x="352" y="440" font-size="10" fill="#888">stable</text>

  <rect x="170" y="452" width="340" height="70" rx="8" fill="#EEEDFE" stroke="#7F77DD" stroke-width="0.8"/>
  <text x="340" y="476" font-size="13" font-weight="500" fill="#26215C" text-anchor="middle">Model Training</text>
  <text x="340" y="494" font-size="11" fill="#534AB7" text-anchor="middle">DQN Agent · TF2 Keras · GPU (CUDA WSL2)</text>
  <text x="340" y="510" font-size="11" fill="#534AB7" text-anchor="middle">Optuna HPO · MLflow experiment tracking</text>

  <line x1="340" y1="522" x2="340" y2="550" stroke="#888" stroke-width="1.2" marker-end="url(#a)"/>

  <polygon points="340,550 420,594 340,638 260,594" fill="#EEEDFE" stroke="#7F77DD" stroke-width="0.8"/>
  <text x="340" y="585" font-size="11" font-weight="500" fill="#26215C" text-anchor="middle">Model evaluation</text>
  <text x="340" y="601" font-size="11" fill="#534AB7" text-anchor="middle">&#916;Sharpe &#8805; 0.05?</text>

  <line x1="420" y1="594" x2="520" y2="594" stroke="#bbb" stroke-width="1" stroke-dasharray="4 3" marker-end="url(#ad)"/>
  <rect x="522" y="572" width="96" height="44" rx="6" fill="#F1EFE8" stroke="#888780" stroke-width="0.6"/>
  <text x="570" y="590" font-size="11" fill="#444441" text-anchor="middle">keep current</text>
  <text x="570" y="606" font-size="10" fill="#888780" text-anchor="middle">prod unchanged</text>
  <text x="472" y="582" font-size="10" fill="#bbb" text-anchor="middle">no</text>

  <line x1="340" y1="638" x2="340" y2="666" stroke="#888" stroke-width="1.2" marker-end="url(#a)"/>
  <text x="352" y="656" font-size="10" fill="#888">yes</text>

  <rect x="170" y="668" width="340" height="70" rx="8" fill="#FAEEDA" stroke="#BA7517" stroke-width="0.8"/>
  <text x="340" y="692" font-size="13" font-weight="500" fill="#412402" text-anchor="middle">Model Promotion</text>
  <text x="340" y="710" font-size="11" fill="#854F0B" text-anchor="middle">Staging &#8594; Production · MLflow Registry</text>
  <text x="340" y="726" font-size="11" fill="#854F0B" text-anchor="middle">old model &#8594; Archived · full audit trail</text>

  <line x1="340" y1="738" x2="340" y2="766" stroke="#888" stroke-width="1.2" marker-end="url(#a)"/>

  <rect x="170" y="768" width="340" height="70" rx="8" fill="#FAECE7" stroke="#D85A30" stroke-width="0.8"/>
  <text x="340" y="792" font-size="13" font-weight="500" fill="#4A1B0C" text-anchor="middle">Model Serving</text>
  <text x="340" y="810" font-size="11" fill="#993C1D" text-anchor="middle">FastAPI · /predict · /health endpoints</text>
  <text x="340" y="826" font-size="11" fill="#993C1D" text-anchor="middle">Docker · inference from MLflow Registry</text>

  <path d="M110 356 L110 472 L170 472" fill="none" stroke="#bbb" stroke-width="1" stroke-dasharray="4 3" marker-end="url(#ad)"/>
</svg>
